<mxfile host="app.diagrams.net" modified="2022-06-18T01:02:02.129Z" agent="5.0 (Windows NT 10.0; Win64; x64) AppleWebKit/537.36 (KHTML, like Gecko) Chrome/102.0.5005.124 Safari/537.36 Edg/102.0.1245.41" etag="vsaGmjpjGufTbGa0o3bY" version="19.0.0" type="github">
  <diagram id="xDVk3xLd7KtGei4Nx1I7" name="第 1 页">
    <mxGraphModel dx="677" dy="374" grid="1" gridSize="10" guides="1" tooltips="1" connect="1" arrows="1" fold="1" page="1" pageScale="1" pageWidth="827" pageHeight="1169" math="0" shadow="0">
      <root>
        <mxCell id="0" />
        <mxCell id="1" parent="0" />
        <mxCell id="5bEsYn9pzyuG8GtsM3du-1" value="" style="group" vertex="1" connectable="0" parent="1">
          <mxGeometry x="120" y="80" width="460" height="300" as="geometry" />
        </mxCell>
        <mxCell id="gr0pPxY9Ka32WXY_yX7s-1" value="异构语言-异构协议&#xa;支持模块" style="shape=umlLifeline;perimeter=lifelinePerimeter;container=1;collapsible=0;recursiveResize=0;rounded=0;shadow=0;strokeWidth=1;" parent="5bEsYn9pzyuG8GtsM3du-1" vertex="1">
          <mxGeometry width="100" height="300" as="geometry" />
        </mxCell>
        <mxCell id="gr0pPxY9Ka32WXY_yX7s-2" value="" style="points=[];perimeter=orthogonalPerimeter;rounded=0;shadow=0;strokeWidth=1;" parent="gr0pPxY9Ka32WXY_yX7s-1" vertex="1">
          <mxGeometry x="45" y="70" width="10" height="210" as="geometry" />
        </mxCell>
        <mxCell id="gr0pPxY9Ka32WXY_yX7s-3" value="java-微服务适配器" style="shape=umlLifeline;perimeter=lifelinePerimeter;container=1;collapsible=0;recursiveResize=0;rounded=0;shadow=0;strokeWidth=1;" parent="5bEsYn9pzyuG8GtsM3du-1" vertex="1">
          <mxGeometry x="180" width="100" height="300" as="geometry" />
        </mxCell>
        <mxCell id="gr0pPxY9Ka32WXY_yX7s-4" value="" style="points=[];perimeter=orthogonalPerimeter;rounded=0;shadow=0;strokeWidth=1;" parent="gr0pPxY9Ka32WXY_yX7s-3" vertex="1">
          <mxGeometry x="45" y="80" width="10" height="70" as="geometry" />
        </mxCell>
        <mxCell id="gr0pPxY9Ka32WXY_yX7s-5" value="适配请求" style="verticalAlign=bottom;endArrow=block;entryX=0;entryY=0;shadow=0;strokeWidth=1;" parent="5bEsYn9pzyuG8GtsM3du-1" source="gr0pPxY9Ka32WXY_yX7s-2" target="gr0pPxY9Ka32WXY_yX7s-4" edge="1">
          <mxGeometry relative="1" as="geometry">
            <mxPoint x="155" y="80" as="sourcePoint" />
          </mxGeometry>
        </mxCell>
        <mxCell id="gr0pPxY9Ka32WXY_yX7s-6" value="restful-微服务适配器" style="shape=umlLifeline;perimeter=lifelinePerimeter;container=1;collapsible=0;recursiveResize=0;rounded=0;shadow=0;strokeWidth=1;" parent="5bEsYn9pzyuG8GtsM3du-1" vertex="1">
          <mxGeometry x="340" width="120" height="300" as="geometry" />
        </mxCell>
        <mxCell id="gr0pPxY9Ka32WXY_yX7s-7" value="" style="points=[];perimeter=orthogonalPerimeter;rounded=0;shadow=0;strokeWidth=1;" parent="gr0pPxY9Ka32WXY_yX7s-6" vertex="1">
          <mxGeometry x="55" y="190" width="10" height="60" as="geometry" />
        </mxCell>
        <mxCell id="gr0pPxY9Ka32WXY_yX7s-8" value="适配后代码" style="html=1;verticalAlign=bottom;endArrow=open;dashed=1;endSize=8;rounded=0;exitX=0.038;exitY=0.997;exitDx=0;exitDy=0;exitPerimeter=0;entryX=0.99;entryY=0.38;entryDx=0;entryDy=0;entryPerimeter=0;" parent="5bEsYn9pzyuG8GtsM3du-1" edge="1" target="gr0pPxY9Ka32WXY_yX7s-2" source="gr0pPxY9Ka32WXY_yX7s-4">
          <mxGeometry relative="1" as="geometry">
            <mxPoint x="160" y="180" as="sourcePoint" />
            <mxPoint x="110" y="160" as="targetPoint" />
          </mxGeometry>
        </mxCell>
        <mxCell id="gr0pPxY9Ka32WXY_yX7s-9" value="适配请求" style="verticalAlign=bottom;endArrow=block;shadow=0;strokeWidth=1;entryX=0.038;entryY=0.004;entryDx=0;entryDy=0;entryPerimeter=0;exitX=1.086;exitY=0.575;exitDx=0;exitDy=0;exitPerimeter=0;" parent="5bEsYn9pzyuG8GtsM3du-1" target="gr0pPxY9Ka32WXY_yX7s-7" edge="1" source="gr0pPxY9Ka32WXY_yX7s-2">
          <mxGeometry relative="1" as="geometry">
            <mxPoint x="110" y="220" as="sourcePoint" />
            <mxPoint x="330" y="220" as="targetPoint" />
          </mxGeometry>
        </mxCell>
        <mxCell id="gr0pPxY9Ka32WXY_yX7s-10" value="适配后代码" style="html=1;verticalAlign=bottom;endArrow=open;dashed=1;endSize=8;rounded=0;" parent="5bEsYn9pzyuG8GtsM3du-1" source="gr0pPxY9Ka32WXY_yX7s-7" target="gr0pPxY9Ka32WXY_yX7s-2" edge="1">
          <mxGeometry relative="1" as="geometry">
            <mxPoint x="270" y="250" as="sourcePoint" />
            <mxPoint x="94.79999999999995" y="257.28" as="targetPoint" />
            <Array as="points">
              <mxPoint x="90" y="250" />
            </Array>
          </mxGeometry>
        </mxCell>
      </root>
    </mxGraphModel>
  </diagram>
</mxfile>
